PathFileType  4	(X/Y/Z) C:\Users\antoi\Documents\MyRepositories\mobilecap\ResultsAnalysis
DataRate	CameraRate	NumFrames	NumMarkers	Units	OrigDataRate	OrigDataStartFrame	OrigNumFrames
100.0	100.0	4	51	mm	100.0	17	134
Frame#	Time	r_knee			r_shank_antsup			r_ankle			r_calc			r_5meta			r_toe			L_knee			L_shank_antsup			L_ankle			L_calc			L_5meta			L_toe			r_sh2			r_sh3			r_sh4			L_sh2			L_sh3			r_thigh1			r_thigh2			r_thigh3			r_thigh4			r_thigh5			L_thigh1			L_thigh2			L_thigh3			L_thigh4			r.ASIS			r.PSIS			L.ASIS			L.PSIS			C7			R_Shoulder			L_Shoulder			R_Sternum			L_Sternum			R_humerus			R_elbow_med			R_elbow_lat			R_forearm			R_wrist_radius			R_wrist_ulna			L_humerus			L_elbow_med			L_elbow_lat			L_forearm			L_wrist_radius			L_wrist_ulna			R_HJC			L_HJC			R_HJC_reg			L_HJC_reg			
		X1	Y1	Z1	X2	Y2	Z2	X3	Y3	Z3	X4	Y4	Z4	X5	Y5	Z5	X6	Y6	Z6	X7	Y7	Z7	X8	Y8	Z8	X9	Y9	Z9	X10	Y10	Z10	X11	Y11	Z11	X12	Y12	Z12	X13	Y13	Z13	X14	Y14	Z14	X15	Y15	Z15	X16	Y16	Z16	X17	Y17	Z17	X18	Y18	Z18	X19	Y19	Z19	X20	Y20	Z20	X21	Y21	Z21	X22	Y22	Z22	X23	Y23	Z23	X24	Y24	Z24	X25	Y25	Z25	X26	Y26	Z26	X27	Y27	Z27	X28	Y28	Z28	X29	Y29	Z29	X30	Y30	Z30	X31	Y31	Z31	X32	Y32	Z32	X33	Y33	Z33	X34	Y34	Z34	X35	Y35	Z35	X36	Y36	Z36	X37	Y37	Z37	X38	Y38	Z38	X39	Y39	Z39	X40	Y40	Z40	X41	Y41	Z41	X42	Y42	Z42	X43	Y43	Z43	X44	Y44	Z44	X45	Y45	Z45	X46	Y46	Z46	X47	Y47	Z47	X48	Y48	Z48	X49	Y49	Z49	X50	Y50	Z50	X51	Y51	Z51	

17	0.16000000	255.75563	492.22341	-12.25265	298.60292	425.25419	-36.31502	231.66206	93.56710	-67.64331	164.91253	67.37014	-109.95489	332.17968	43.67184	-31.00160	384.63296	71.98768	-84.39238	154.68235	471.79314	-299.52820	117.58535	383.98921	-301.26812	-158.53466	251.88271	-235.15703	-205.90682	295.26151	-174.87553	-181.44099	127.22874	-265.64555	-123.30124	102.66766	-227.69424	279.30743	310.14520	-23.32311	222.36490	432.31563	-2.04727	206.42547	320.93026	-10.98925	72.92547	460.95264	-292.12697	-26.45892	390.60191	-281.64273	248.72109	814.48735	39.76383	270.42524	702.54942	26.60331	162.29312	675.64206	46.04034	140.63420	790.17580	63.55103	220.29519	669.48166	54.95244	149.55915	735.29992	-328.36861	178.98544	601.47398	-318.88957	57.72155	715.32528	-261.61227	89.56569	579.89907	-261.41018	233.87900	965.12151	-8.32794	34.33859	998.26255	-64.29751	206.10225	929.66493	-256.07335	14.77443	991.87218	-163.53459	8.38072	1394.28188	-141.38164	122.85958	1372.87458	30.71291	77.80990	1363.71763	-324.61187	151.97391	1375.92651	-128.93427	152.05418	1376.50496	-173.01604	146.15045	1244.37032	102.09100	126.38586	1023.22194	77.09774	135.08334	1048.55134	144.72828	238.80018	956.62734	176.22787	314.74208	844.80939	197.14702	287.96566	830.31299	215.33181	113.28602	1254.06481	-385.96627	143.22048	1015.21928	-337.89191	151.04032	1045.11100	-411.50566	262.14714	1007.83915	-408.53414	391.59619	916.48904	-410.64256	372.22688	897.93823	-433.69561	153.95509	884.58871	-12.89387	127.38585	861.50827	-216.34689	164.79667	880.68541	-24.70314	132.71558	870.20593	-187.43406	
18	0.17000000	260.55838	492.12234	-12.30516	302.68076	424.67441	-36.57490	231.92206	93.71568	-67.72088	164.90859	67.40043	-110.01642	332.23633	43.54671	-31.04707	384.67948	71.83290	-84.41054	177.65029	475.22891	-301.79818	142.14101	387.11381	-303.29394	-133.94974	255.73673	-237.01498	-182.51475	297.17936	-176.06188	-154.33293	131.73334	-270.23880	-96.51269	107.13075	-232.01131	282.22880	309.79182	-23.72640	226.69553	432.52654	-1.86461	209.52938	321.30879	-10.68416	97.52252	463.99440	-294.50268	-2.00317	393.69823	-284.30470	258.01956	814.32138	39.98983	278.31426	702.21128	26.63718	169.34067	677.00490	45.74232	149.44994	791.65212	63.55858	227.33903	669.84729	54.91848	163.59291	737.91254	-329.02459	197.09917	604.92214	-320.68240	73.25031	714.85851	-261.06064	109.31882	580.63949	-261.53171	244.68293	966.34300	-7.98080	45.14947	999.79308	-64.20171	216.76306	930.66263	-255.97065	25.63665	993.32241	-163.46938	20.21119	1396.05375	-140.10474	136.27787	1373.90973	30.98447	88.05486	1365.11587	-324.00580	163.88045	1377.05207	-128.83794	163.75703	1377.65899	-172.98620	161.57327	1245.36726	101.42873	142.59622	1024.02194	76.29836	152.50217	1049.37289	143.86656	257.32162	957.98251	173.03527	334.36490	846.61796	192.33759	308.01475	831.95387	211.04726	121.29307	1254.34430	-385.22235	147.08710	1015.27619	-335.50362	154.94266	1044.41489	-409.28291	264.81157	1003.28053	-407.54219	390.65752	907.04805	-410.89474	370.39043	889.08177	-433.42824	164.54933	885.94399	-12.64007	137.98124	862.69847	-216.07728	175.34121	881.94049	-24.33919	143.31582	871.32120	-187.26433	
19	0.18000000	264.95054	492.07201	-12.49868	306.24634	424.18100	-36.88127	232.19204	93.88156	-67.81763	164.92589	67.41144	-110.01614	332.42455	43.61204	-31.05828	384.72712	71.72196	-84.42791	200.35860	479.17610	-303.74468	166.61787	390.64332	-305.28170	-108.51600	258.08056	-238.92015	-158.52166	297.42575	-177.39397	-125.83607	134.62790	-274.63110	-68.17886	110.35467	-236.13959	284.82023	309.53141	-24.10823	230.44774	432.75807	-1.88637	212.17384	321.70879	-10.59401	121.68034	467.05778	-296.52641	22.36686	396.29468	-286.64986	267.23833	814.24648	39.89578	285.99627	701.91251	26.41972	176.44414	678.37432	45.39950	158.29205	793.19888	63.53415	234.36269	670.27272	54.70160	177.75530	740.92693	-329.46766	215.17246	608.83010	-322.17291	88.71618	714.80630	-260.57339	128.96837	581.83915	-261.65661	255.41529	967.59277	-7.74880	55.96150	1001.47828	-63.98061	227.21013	932.09367	-255.95871	36.45491	995.11544	-163.26388	31.98414	1398.02365	-138.93839	149.53453	1375.14252	31.15648	98.24434	1366.72961	-323.44960	175.70441	1378.34516	-128.81827	175.39171	1378.98522	-173.04018	176.85911	1246.57036	100.57700	158.75651	1025.04662	75.28460	169.92400	1050.34666	142.70183	275.76136	959.58880	169.52914	353.74230	848.68507	187.05615	327.91651	833.87050	206.40021	129.25825	1254.86517	-384.46580	150.81607	1015.72252	-332.78910	158.64704	1043.96922	-406.77404	266.99601	998.75722	-406.44247	388.82628	897.41924	-411.33536	367.48431	880.07824	-433.08967	175.10785	887.34977	-12.53612	148.39032	864.28015	-215.97394	185.80288	883.25093	-24.20213	153.76181	872.80107	-187.28308	
20	0.19000000	268.89840	492.06887	-12.80154	309.28393	423.75879	-37.15024	232.45143	94.04489	-67.95123	164.95636	67.41517	-109.96205	332.69628	43.82968	-31.02136	384.77092	71.64476	-84.44336	222.78783	483.47698	-305.38090	190.93234	394.48251	-307.23426	-82.34830	258.86027	-240.91321	-133.97703	295.98184	-178.96090	-96.13834	135.86182	-278.72618	-38.44788	112.34652	-239.99350	286.97747	309.34826	-24.41329	233.55397	433.02204	-2.14501	214.27547	322.14249	-10.75742	145.34137	470.05467	-298.24013	46.58738	398.34151	-288.65345	276.42991	814.23721	39.51557	293.50146	701.63741	25.98155	183.61186	679.75475	45.02651	167.19379	794.80897	63.47620	241.38992	670.73809	54.31386	192.11914	744.30672	-329.74423	233.22090	613.12801	-323.39724	104.12089	715.12558	-260.23636	148.45848	583.44657	-261.92647	266.10620	968.84709	-7.60789	66.79513	1003.28820	-63.66824	237.50301	933.99670	-255.99825	47.23089	997.20139	-162.94703	43.70372	1400.16627	-137.87745	162.62531	1376.58938	31.23852	108.39272	1368.54349	-322.93419	187.45340	1379.81265	-128.86572	186.94771	1380.49065	-173.15955	191.95530	1247.99632	99.57303	174.83782	1026.32774	74.04503	187.27925	1051.48756	141.23403	294.07030	961.46403	165.72467	372.79489	851.02700	181.29696	347.62851	836.07315	201.39109	137.19729	1255.63465	-383.70185	154.47961	1016.57800	-329.75198	162.19491	1043.79816	-403.99802	268.72178	994.31874	-405.23359	386.05913	887.71597	-411.89535	363.47845	871.04583	-432.64751	185.65513	888.77953	-12.59032	158.68635	866.25438	-216.05322	196.23859	884.65769	-24.24303	164.08273	874.65511	-187.41742	
